<?xml version="1.0" standalone="no"?>
<!DOCTYPE svg PUBLIC "-//W3C//DTD SVG 20010904//EN"
 "http://www.w3.org/TR/2001/REC-SVG-20010904/DTD/svg10.dtd">
<svg version="1.0" xmlns="http://www.w3.org/2000/svg"
 width="7500.000000pt" height="5000.000000pt" viewBox="0 0 7500.000000 5000.000000"
 preserveAspectRatio="xMidYMid meet">
<metadata>
Created by potrace 1.16, written by Peter Selinger 2001-2019
</metadata>
<g transform="translate(0.000000,5000.000000) scale(0.100000,-0.100000)"
fill="#000000" stroke="none">
<path d="M36005 46099 c-208 -25 -484 -109 -690 -208 -159 -77 -306 -176 -528
-354 -172 -138 -212 -172 -386 -327 -332 -295 -891 -868 -1171 -1200 -25 -29
-50 -58 -56 -64 -6 -6 -41 -49 -79 -96 -38 -47 -72 -87 -75 -90 -26 -22 -246
-311 -320 -421 -24 -35 -49 -69 -55 -76 -7 -6 -27 -35 -45 -65 -18 -29 -48
-75 -66 -103 -79 -121 -171 -300 -215 -420 -30 -83 -33 -100 -33 -210 0 -132
18 -223 75 -371 35 -92 125 -272 197 -394 27 -47 80 -137 117 -200 344 -589
349 -837 25 -1294 -37 -52 -210 -277 -220 -286 -3 -3 -21 -27 -40 -53 -19 -27
-44 -60 -56 -75 -36 -48 -114 -179 -138 -234 -51 -116 -61 -165 -60 -308 1
-159 16 -214 113 -408 119 -238 170 -401 178 -574 9 -180 -19 -272 -161 -531
-116 -214 -155 -385 -136 -598 8 -98 35 -247 45 -258 8 -7 10 -2 55 104 23 55
50 119 61 142 10 24 19 47 19 53 0 6 4 18 10 28 13 23 120 269 120 276 0 3 15
38 34 78 73 158 89 195 106 238 10 25 41 94 69 154 28 59 51 110 51 113 0 8
297 604 333 668 19 33 47 83 62 110 115 204 257 405 341 485 34 32 88 70 120
85 89 42 277 100 404 125 103 20 136 22 320 17 173 -4 220 -8 300 -29 71 -18
106 -22 139 -16 24 4 45 9 47 11 2 1 4 69 5 150 0 81 4 149 9 152 13 8 559 75
613 75 10 0 24 21 37 58 66 174 115 451 144 811 l5 55 -113 115 c-323 333
-521 703 -565 1058 -5 42 -10 218 -10 392 -2 399 11 476 114 696 152 327 535
700 1018 994 35 21 37 22 45 4 4 -10 34 -63 66 -118 228 -384 535 -728 836
-939 294 -207 624 -390 868 -480 138 -51 311 -94 325 -80 3 3 -18 45 -47 92
-125 206 -238 465 -276 629 -17 75 -7 89 15 20 29 -91 130 -293 203 -402 36
-55 104 -138 149 -183 l83 -84 0 -237 c0 -130 -5 -273 -10 -319 -45 -359 -247
-741 -569 -1075 l-84 -87 7 -162 c4 -88 11 -204 16 -257 5 -53 12 -127 15
-166 13 -142 54 -337 73 -349 5 -3 82 -14 173 -26 216 -27 500 -74 673 -111
77 -16 141 -29 143 -29 1 0 3 -43 3 -95 l0 -95 63 0 c85 0 303 -25 472 -55
277 -48 522 -136 696 -251 185 -122 253 -214 445 -601 68 -138 124 -254 124
-256 0 -3 30 -67 66 -143 36 -77 72 -155 79 -174 7 -19 32 -75 54 -125 23 -49
46 -99 51 -110 5 -11 22 -49 38 -85 17 -36 48 -108 70 -160 22 -52 79 -185
127 -295 48 -110 90 -209 95 -220 6 -17 14 -6 47 60 97 195 124 372 88 581
-39 223 -144 439 -395 814 -84 125 -161 243 -205 315 -37 61 -98 183 -124 247
-42 107 -53 172 -56 347 -2 135 -6 168 -29 246 -50 168 -145 346 -316 595
-413 601 -482 727 -511 935 -16 118 7 192 145 470 188 377 224 499 233 780 6
196 -8 324 -58 519 -86 339 -315 808 -600 1225 -46 68 -95 140 -108 160 -13
20 -33 48 -45 62 -12 15 -30 39 -41 55 -110 155 -387 504 -535 674 -79 90
-274 285 -350 349 -30 25 -64 54 -75 64 -37 35 -221 166 -311 222 -288 182
-604 291 -904 311 -104 7 -280 -8 -374 -32 -53 -14 -62 -14 -98 1 -110 44
-363 65 -533 44z"/>
<path d="M36030 12200 c-30 -5 -84 -11 -120 -15 -264 -27 -655 -148 -920 -287
-63 -32 -123 -65 -132 -72 -15 -11 -14 -26 23 -202 22 -104 51 -243 64 -309
13 -66 53 -264 90 -440 36 -176 92 -450 125 -610 32 -159 96 -468 140 -685 45
-217 97 -471 115 -565 35 -172 138 -679 266 -1300 38 -187 94 -459 124 -605
30 -146 88 -431 130 -635 183 -895 169 -770 111 -976 -67 -238 -75 -265 -129
-404 -57 -146 -85 -203 -148 -295 -128 -190 -207 -413 -224 -630 -6 -81 7
-277 21 -313 6 -16 -795 -17 -13348 -17 -12070 0 -13356 -1 -13376 -16 -30
-21 -31 -95 -2 -124 20 -20 33 -20 29820 -20 l29799 0 21 22 c29 31 28 101 -2
122 -20 15 -1427 16 -14649 16 l-14626 0 -2 93 c-1 50 -4 103 -5 117 -4 24
-12 123 -22 265 -25 343 -78 629 -173 927 -44 139 -152 431 -176 478 -9 17
-14 34 -11 38 4 7 112 526 210 1012 14 69 37 179 50 245 14 66 61 296 105 510
44 215 112 545 151 735 39 190 84 410 100 490 15 80 92 456 170 835 78 380
148 722 155 760 8 39 54 266 104 505 168 819 194 948 188 963 -6 17 -157 100
-267 147 -41 18 -88 38 -105 45 -32 14 -176 65 -235 83 -77 24 -241 62 -350
82 -526 92 -1045 21 -1527 -211 -57 -27 -108 -49 -114 -49 -7 0 -58 22 -113
49 -349 170 -722 253 -1116 250 -74 -1 -160 -5 -190 -9z m1435 -4440 c7 -228
12 -333 20 -495 3 -60 7 -173 10 -250 2 -77 9 -264 14 -415 6 -151 13 -345 16
-430 3 -85 8 -218 11 -295 6 -130 4 -148 -21 -250 -15 -60 -30 -114 -35 -118
-4 -4 -20 27 -35 70 -16 43 -42 107 -58 143 -29 65 -29 65 -22 210 3 80 8 186
10 235 2 50 19 480 37 957 18 477 36 862 39 855 4 -7 10 -104 14 -217z"/>
</g>
</svg>
