<svg data-v-423bf9ae="" xmlns="http://www.w3.org/2000/svg" viewBox="0 0 198.73537271246576 60" class="font"><!----><!----><!----><g data-v-423bf9ae="" id="300c8fff-9958-4259-96f0-b967cee5ed96" fill="white" transform="matrix(4.683840944687036,0,0,4.683840944687036,-4.215457638732744,-21.451992122992237)"><path d="M6.61 14.55L6.61 6.24L5.32 6.24L5.32 11.90C5.32 13.02 4.69 13.58 3.72 13.58C2.52 13.58 2.18 12.98 2.18 11.62L2.18 6.24L0.90 6.24L0.90 11.73C0.90 13.68 1.48 14.71 3.36 14.71C4.27 14.71 5.00 14.43 5.40 13.92L5.49 14.55ZM8.60 6.24L8.60 14.55L9.88 14.55L9.88 9.38C9.88 8.02 10.70 7.41 11.72 7.41C11.93 7.41 12.08 7.42 12.24 7.45L12.24 6.12C12.12 6.10 11.97 6.09 11.83 6.09C10.91 6.09 10.16 6.62 9.83 7.22L9.72 6.24ZM16.10 9.67C14.99 9.48 14.53 9.23 14.53 8.32C14.53 7.62 14.97 7.18 16.00 7.18C17.11 7.18 17.51 7.63 17.54 8.47L18.75 8.47C18.75 6.93 17.91 6.08 16.03 6.08C14.25 6.08 13.27 6.96 13.27 8.37C13.27 10.07 14.28 10.53 15.78 10.78C16.93 10.98 17.57 11.24 17.57 12.28C17.57 13.17 17.04 13.61 16.00 13.61C14.78 13.61 14.32 13.10 14.32 12.21L13.09 12.21C13.09 13.85 14.03 14.71 15.95 14.71C17.84 14.71 18.87 13.79 18.87 12.19C18.87 10.35 17.51 9.91 16.10 9.67ZM22.88 13.54C21.99 13.54 21.63 13.22 21.63 12.00L21.63 7.66L23.53 7.66L23.53 6.52L21.64 6.52L21.64 4.58L20.33 4.58L20.33 11.96C20.33 13.83 20.87 14.71 22.60 14.71C22.97 14.71 23.37 14.66 23.53 14.62L23.53 13.47C23.35 13.51 23.11 13.54 22.88 13.54ZM26.19 9.28C26.19 7.67 26.60 7.21 27.82 7.21C29.02 7.21 29.43 7.67 29.43 9.28L29.43 11.51C29.43 13.12 29.02 13.58 27.82 13.58C26.60 13.58 26.19 13.12 26.19 11.51ZM27.82 6.08C25.82 6.08 24.91 6.93 24.91 9.27L24.91 11.52C24.91 13.86 25.82 14.71 27.82 14.71C29.82 14.71 30.73 13.86 30.73 11.52L30.73 9.27C30.73 6.93 29.82 6.08 27.82 6.08ZM32.49 6.24L32.49 14.55L33.78 14.55L33.78 9.38C33.78 8.02 34.59 7.41 35.62 7.41C35.83 7.41 35.98 7.42 36.13 7.45L36.13 6.12C36.02 6.10 35.87 6.09 35.73 6.09C34.80 6.09 34.06 6.62 33.73 7.22L33.61 6.24ZM39.38 15.05C39.14 15.92 38.70 16.11 38.00 16.11C37.72 16.11 37.55 16.09 37.32 16.00L37.32 17.25C37.63 17.35 37.88 17.39 38.25 17.39C39.65 17.39 40.46 16.73 41.12 14.32L43.33 6.24L41.92 6.24L40.26 13.15L38.28 6.24L36.88 6.24L39.51 14.60Z"></path></g><!----><!----></svg>